<?xml version="1.0" standalone="no"?><!DOCTYPE svg PUBLIC "-//W3C//DTD SVG 1.1//EN" 	"http://www.w3.org/Graphics/SVG/1.1/DTD/svg11.dtd"><svg width="3337" height="1329" version="1.1"	xmlns="http://www.w3.org/2000/svg"><title>Krona (snapshot) - Root</title><defs>	<style type="text/css">	text {font-size: 11px; font-family: sans-serif; dominant-baseline:central}	path {stroke-width:0.27499999999999997;}	path.wedge {stroke:none}	path.line {fill:none;stroke:black;}	line {stroke:black;stroke-width:0.27499999999999997;}	line.tick {stroke-width:0.5499999999999999;}	line.pattern {stroke-width:0.18333333333333332;}	circle {fill:none;stroke:black;stroke-width:0.27499999999999997;}	rect {stroke:black;stroke-width:0.27499999999999997;}	.highlight {stroke:black;stroke-width:1.375;}	.searchHighlight {fill:rgb(255, 255, 100);stroke:none;}	</style><pattern id="hiddenPattern" patternUnits="userSpaceOnUse" x="0" y="0" width="6.6" height="6.6"><line class="pattern" x1="0" y1="0" x2="3.3" y2="3.3"/><line class="pattern" x1="3.3" y1="6.6" x2="6.6" y2="3.3"/></pattern></defs><path class="wedge" fill="rgb(207,111,111)" d=" M 1593.5,752.5 L 1593.5,1196.1 A 531.6,531.6 0 1,1 1626.879440181783,1195.051008832469 L 1599.0255657185796,752.3263521016879 A 88,88 0 1 0 1593.5,752.5 Z "/><path class="wedge" fill="rgb(210,121,121)" d=" M 1593.5,841.0219410390384 L 1593.5,1196.1 A 531.6,531.6 0 1,1 1819.8442713959923,1145.506061090936 L 1668.6593870012932,824.2218276059336 A 176.5219410390384,176.5219410390384 0 1 0 1593.5,841.0219410390384 Z "/><path class="wedge" fill="rgb(213,130,130)" d=" M 1593.5,913.5949405713492 L 1593.5,1196.1 A 531.6,531.6 0 1,1 2003.1048398596095,1003.3545929504035 L 1785.4309504186726,823.2790908452022 A 249.09494057134918,249.09494057134918 0 1 0 1593.5,913.5949405713492 Z "/><path class="wedge" fill="rgb(213,130,130)" d=" M 1593.5,913.5949405713492 L 1593.5,1196.1 A 531.6,531.6 0 1,1 2003.1048398596095,1003.3545929504035 L 1785.4309504186726,823.2790908452022 A 249.09494057134918,249.09494057134918 0 1 0 1593.5,913.5949405713492 Z "/><path class="wedge" fill="rgb(216,140,140)" d=" M 1593.5,974.1638810280269 L 1593.5,1196.1 A 531.6,531.6 0 0,1 1493.8878647945364,142.3161410769111 L 1535.474641863784,360.3211430317618 A 309.663881028027,309.663881028027 0 0 0 1593.5,974.1638810280269 Z "/><path class="wedge" fill="rgb(219,149,149)" d=" M 1593.5,1025.4741481776334 L 1593.5,1196.1 A 531.6,531.6 0 0,1 1078.601133726223,532.2966811688175 L 1243.8664792121788,574.7295327288522 A 360.9741481776334,360.9741481776334 0 0 0 1593.5,1025.4741481776334 Z "/><path class="wedge" fill="rgb(219,149,149)" d=" M 1593.5,1025.4741481776334 L 1593.5,1196.1 A 531.6,531.6 0 0,1 1078.601133726223,532.2966811688175 L 1243.8664792121788,574.7295327288522 A 360.9741481776334,360.9741481776334 0 0 0 1593.5,1025.4741481776334 Z "/><path class="wedge" fill="rgb(223,159,159)" d=" M 1593.5,1069.4945891502634 L 1593.5,1196.1 A 531.6,531.6 0 0,1 1233.9172438842747,1056.0339084986367 L 1319.5551719740265,962.7865207125701 A 404.9945891502635,404.9945891502635 0 0 0 1593.5,1069.4945891502634 Z "/><path class="wedge" fill="rgb(223,162,159)" d=" M 1319.5551719740265,962.7865207125701 L 1233.9172438842747,1056.0339084986367 A 531.6,531.6 0 0,1 1071.3161410769112,764.1121352054636 L 1195.679011652642,740.3885924979631 A 404.9945891502635,404.9945891502635 0 0 0 1319.5551719740265,962.7865207125701 Z "/><path class="wedge" fill="rgb(223,162,159)" d=" M 1158.1763090977229,747.5426326193399 L 1071.3161410769112,764.112135205464 A 531.6,531.6 0 0,1 1071.3161410769112,764.1121352054636 L 1158.1763090977229,747.5426326193394 A 443.173549180377,443.173549180377 0 0 0 1158.1763090977229,747.5426326193399 Z "/><path class="wedge" fill="rgb(226,172,168)" d=" M 1293.7303117910687,990.9060794842096 L 1233.9172438842747,1056.0339084986367 A 531.6,531.6 0 0,1 1115.4135249221636,896.9475905395649 L 1194.9385252532343,858.2822116212302 A 443.173549180377,443.173549180377 0 0 0 1293.7303117910687,990.9060794842096 Z "/><path class="wedge" fill="rgb(226,173,168)" d=" M 1194.9385252532343,858.2822116212302 L 1115.4135249221636,896.9475905395649 A 531.6,531.6 0 0,1 1071.3161410769112,764.112135205464 L 1158.1763090977229,747.5426326193399 A 443.173549180377,443.173549180377 0 0 0 1194.9385252532343,858.2822116212302 Z "/><path class="wedge" fill="rgb(223,166,159)" d=" M 1195.679011652642,740.3885924979631 L 1071.3161410769112,764.1121352054636 A 531.6,531.6 0 0,1 1078.601133726223,532.2966811688175 L 1201.229016552888,563.7821128774716 A 404.9945891502635,404.9945891502635 0 0 0 1195.679011652642,740.3885924979631 Z "/><path class="wedge" fill="rgb(219,159,149)" d=" M 1243.8664792121788,574.7295327288522 L 1078.601133726223,532.2966811688175 A 531.6,531.6 0 0,1 1429.2263446794173,158.91842778082344 L 1481.9527035414344,321.1932329455871 A 360.9741481776334,360.9741481776334 0 0 0 1243.8664792121788,574.7295327288522 Z "/><path class="wedge" fill="rgb(219,159,149)" d=" M 1243.8664792121788,574.7295327288522 L 1078.601133726223,532.2966811688175 A 531.6,531.6 0 0,1 1429.2263446794173,158.91842778082344 L 1481.9527035414344,321.1932329455871 A 360.9741481776334,360.9741481776334 0 0 0 1243.8664792121788,574.7295327288522 Z "/><path class="wedge" fill="rgb(219,159,149)" d=" M 1243.8664792121788,574.7295327288522 L 1078.601133726223,532.2966811688175 A 531.6,531.6 0 0,1 1429.2263446794173,158.91842778082344 L 1481.9527035414344,321.1932329455871 A 360.9741481776334,360.9741481776334 0 0 0 1243.8664792121788,574.7295327288522 Z "/><path class="wedge" fill="rgb(219,165,149)" d=" M 1481.9527035414344,321.1932329455871 L 1429.2263446794173,158.91842778082344 A 531.6,531.6 0 0,1 1493.8878647945364,142.3161410769111 L 1525.8600345110092,309.9197259840641 A 360.9741481776334,360.9741481776334 0 0 0 1481.9527035414344,321.1932329455871 Z "/><path class="wedge" fill="rgb(219,165,149)" d=" M 1481.9527035414344,321.1932329455871 L 1429.2263446794173,158.91842778082344 A 531.6,531.6 0 0,1 1493.8878647945364,142.3161410769111 L 1525.8600345110092,309.9197259840641 A 360.9741481776334,360.9741481776334 0 0 0 1481.9527035414344,321.1932329455871 Z "/><path class="wedge" fill="rgb(219,165,149)" d=" M 1481.9527035414344,321.1932329455871 L 1429.2263446794173,158.91842778082344 A 531.6,531.6 0 0,1 1493.8878647945364,142.3161410769111 L 1525.8600345110092,309.9197259840641 A 360.9741481776334,360.9741481776334 0 0 0 1481.9527035414344,321.1932329455871 Z "/><path class="wedge" fill="rgb(216,157,140)" d=" M 1535.474641863784,360.3211430317618 L 1493.8878647945364,142.3161410769111 A 531.6,531.6 0 0,1 2003.1048398596095,1003.3545929504035 L 1832.1001211414412,861.8871865259486 A 309.663881028027,309.663881028027 0 0 0 1535.474641863784,360.3211430317618 Z "/><path class="wedge" fill="rgb(219,165,149)" d=" M 1525.8600345110092,309.9197259840641 L 1493.8878647945364,142.3161410769111 A 531.6,531.6 0 0,1 2115.6839024873707,764.1119068337714 L 1948.0803035975377,732.1398104169873 A 360.9741481776334,360.9741481776334 0 0 0 1525.8600345110092,309.9197259840641 Z "/><path class="wedge" fill="rgb(219,165,149)" d=" M 1525.8600345110092,309.9197259840641 L 1493.8878647945364,142.3161410769111 A 531.6,531.6 0 0,1 2115.6839024873707,764.1119068337714 L 1948.0803035975377,732.1398104169873 A 360.9741481776334,360.9741481776334 0 0 0 1525.8600345110092,309.9197259840641 Z "/><path class="wedge" fill="rgb(219,165,149)" d=" M 1525.8600345110092,309.9197259840641 L 1493.8878647945364,142.3161410769111 A 531.6,531.6 0 0,1 2115.6839024873707,764.1119068337714 L 1948.0803035975377,732.1398104169873 A 360.9741481776334,360.9741481776334 0 0 0 1525.8600345110092,309.9197259840641 Z "/><path class="wedge" fill="rgb(219,165,149)" d=" M 1991.3210215364072,740.3884185150816 L 2115.6839024873707,764.111906833771 A 531.6,531.6 0 0,1 2115.6839024873707,764.1119068337714 L 1991.321021536407,740.388418515082 A 404.9945891502635,404.9945891502635 0 0 0 1991.3210215364072,740.3884185150816 Z "/><path class="wedge" fill="rgb(223,174,159)" d=" M 1517.6114075020369,266.6790116526419 L 1493.8878647945364,142.3161410769111 A 531.6,531.6 0 0,1 2124.0925977030365,631.7883008276258 L 1997.727108940768,639.5788917104538 A 404.9945891502635,404.9945891502635 0 0 0 1517.6114075020369,266.6790116526419 Z "/><path class="wedge" fill="rgb(223,182,159)" d=" M 1997.727108940768,639.5788917104538 L 2124.0925977030365,631.7883008276258 A 531.6,531.6 0 0,1 2123.527534510337,705.3579571306964 L 1997.29662072487,695.6272602740132 A 404.9945891502635,404.9945891502635 0 0 0 1997.727108940768,639.5788917104538 Z "/><path class="wedge" fill="rgb(223,182,159)" d=" M 1997.29662072487,695.6272602740132 L 2123.527534510337,705.3579571306964 A 531.6,531.6 0 0,1 2115.6839024873707,764.111906833771 L 1991.3210215364072,740.3884185150816 A 404.9945891502635,404.9945891502635 0 0 0 1997.29662072487,695.6272602740132 Z "/><path class="wedge" fill="rgb(219,176,149)" d=" M 1948.0803035975377,732.1398104169873 L 2115.6839024873707,764.1119068337714 A 531.6,531.6 0 0,1 2003.1048398596095,1003.3545929504035 L 1871.6353614705765,894.5935817275218 A 360.9741481776334,360.9741481776334 0 0 0 1948.0803035975377,732.1398104169873 Z "/><path class="wedge" fill="rgb(219,176,149)" d=" M 1948.0803035975377,732.1398104169873 L 2115.6839024873707,764.1119068337714 A 531.6,531.6 0 0,1 2003.1048398596095,1003.3545929504035 L 1871.6353614705765,894.5935817275218 A 360.9741481776334,360.9741481776334 0 0 0 1948.0803035975377,732.1398104169873 Z "/><path class="wedge" fill="rgb(223,183,159)" d=" M 1991.321021536407,740.388418515082 L 2115.6839024873707,764.1119068337714 A 531.6,531.6 0 0,1 2059.3446311113175,920.6002531524721 L 1948.3994638539957,859.6076313144542 A 404.9945891502635,404.9945891502635 0 0 0 1991.321021536407,740.388418515082 Z "/><path class="wedge" fill="rgb(223,185,159)" d=" M 1948.3994638539957,859.6076313144542 L 2059.3446311113175,920.6002531524721 A 531.6,531.6 0 0,1 2003.1048398596095,1003.3545929504035 L 1905.5536941928178,922.6532668427924 A 404.9945891502635,404.9945891502635 0 0 0 1948.3994638539957,859.6076313144542 Z "/><path class="wedge" fill="rgb(213,166,130)" d=" M 1785.4309504186726,823.2790908452022 L 2003.1048398596095,1003.3545929504035 A 531.6,531.6 0 0,1 1819.8442713959923,1145.506061090936 L 1699.559467328913,889.8878408613722 A 249.09494057134918,249.09494057134918 0 0 0 1785.4309504186726,823.2790908452022 Z "/><path class="wedge" fill="rgb(213,166,130)" d=" M 1785.4309504186726,823.2790908452022 L 2003.1048398596095,1003.3545929504035 A 531.6,531.6 0 0,1 1819.8442713959923,1145.506061090936 L 1699.559467328913,889.8878408613722 A 249.09494057134918,249.09494057134918 0 0 0 1785.4309504186726,823.2790908452022 Z "/><path class="wedge" fill="rgb(213,166,130)" d=" M 1785.4309504186726,823.2790908452022 L 2003.1048398596095,1003.3545929504035 A 531.6,531.6 0 0,1 1819.8442713959923,1145.506061090936 L 1699.559467328913,889.8878408613722 A 249.09494057134918,249.09494057134918 0 0 0 1785.4309504186726,823.2790908452022 Z "/><path class="wedge" fill="rgb(213,166,130)" d=" M 1785.4309504186726,823.2790908452022 L 2003.1048398596095,1003.3545929504035 A 531.6,531.6 0 0,1 1819.8442713959923,1145.506061090936 L 1699.559467328913,889.8878408613722 A 249.09494057134918,249.09494057134918 0 0 0 1785.4309504186726,823.2790908452022 Z "/><path class="wedge" fill="rgb(213,166,130)" d=" M 1785.4309504186726,823.2790908452022 L 2003.1048398596095,1003.3545929504035 A 531.6,531.6 0 0,1 1819.8442713959923,1145.506061090936 L 1699.559467328913,889.8878408613722 A 249.09494057134918,249.09494057134918 0 0 0 1785.4309504186726,823.2790908452022 Z "/><path class="wedge" fill="rgb(213,166,130)" d=" M 1785.4309504186726,823.2790908452022 L 2003.1048398596095,1003.3545929504035 A 531.6,531.6 0 0,1 1819.8442713959923,1145.506061090936 L 1699.559467328913,889.8878408613722 A 249.09494057134918,249.09494057134918 0 0 0 1785.4309504186726,823.2790908452022 Z "/><path class="wedge" fill="rgb(210,163,121)" d=" M 1668.6593870012932,824.2218276059336 L 1819.8442713959923,1145.506061090936 A 531.6,531.6 0 0,1 1660.1271469627839,1191.9081752187765 L 1615.62406566547,839.6300128093975 A 176.5219410390384,176.5219410390384 0 0 0 1668.6593870012932,824.2218276059336 Z "/><path class="wedge" fill="rgb(213,169,130)" d=" M 1699.559467328913,889.8878408613722 L 1819.8442713959923,1145.506061090936 A 531.6,531.6 0 0,1 1693.1119068337712,1186.683902487371 L 1640.1757374209124,909.1827843442567 A 249.09494057134918,249.09494057134918 0 0 0 1699.559467328913,889.8878408613722 Z "/><path class="wedge" fill="rgb(213,169,130)" d=" M 1699.559467328913,889.8878408613722 L 1819.8442713959923,1145.506061090936 A 531.6,531.6 0 0,1 1693.1119068337712,1186.683902487371 L 1640.1757374209124,909.1827843442567 A 249.09494057134918,249.09494057134918 0 0 0 1699.559467328913,889.8878408613722 Z "/><path class="wedge" fill="rgb(213,169,130)" d=" M 1699.559467328913,889.8878408613722 L 1819.8442713959923,1145.506061090936 A 531.6,531.6 0 0,1 1693.1119068337712,1186.683902487371 L 1640.1757374209124,909.1827843442567 A 249.09494057134918,249.09494057134918 0 0 0 1699.559467328913,889.8878408613722 Z "/><path class="wedge" fill="rgb(213,169,130)" d=" M 1699.559467328913,889.8878408613722 L 1819.8442713959923,1145.506061090936 A 531.6,531.6 0 0,1 1693.1119068337712,1186.683902487371 L 1640.1757374209124,909.1827843442567 A 249.09494057134918,249.09494057134918 0 0 0 1699.559467328913,889.8878408613722 Z "/><path class="wedge" fill="rgb(213,169,130)" d=" M 1699.559467328913,889.8878408613722 L 1819.8442713959923,1145.506061090936 A 531.6,531.6 0 0,1 1693.1119068337712,1186.683902487371 L 1640.1757374209124,909.1827843442567 A 249.09494057134918,249.09494057134918 0 0 0 1699.559467328913,889.8878408613722 Z "/><path class="wedge" fill="rgb(213,171,130)" d=" M 1640.1757374209124,909.1827843442567 L 1693.1119068337712,1186.683902487371 A 531.6,531.6 0 0,1 1660.1271469627839,1191.9081752187765 L 1624.7198743663153,911.6307525638917 A 249.09494057134918,249.09494057134918 0 0 0 1640.1757374209124,909.1827843442567 Z "/><path class="wedge" fill="rgb(213,171,130)" d=" M 1640.1757374209124,909.1827843442567 L 1693.1119068337712,1186.683902487371 A 531.6,531.6 0 0,1 1660.1271469627839,1191.9081752187765 L 1624.7198743663153,911.6307525638917 A 249.09494057134918,249.09494057134918 0 0 0 1640.1757374209124,909.1827843442567 Z "/><path class="wedge" fill="rgb(213,171,130)" d=" M 1640.1757374209124,909.1827843442567 L 1693.1119068337712,1186.683902487371 A 531.6,531.6 0 0,1 1660.1271469627839,1191.9081752187765 L 1624.7198743663153,911.6307525638917 A 249.09494057134918,249.09494057134918 0 0 0 1640.1757374209124,909.1827843442567 Z "/><path class="wedge" fill="rgb(213,171,130)" d=" M 1640.1757374209124,909.1827843442567 L 1693.1119068337712,1186.683902487371 A 531.6,531.6 0 0,1 1660.1271469627839,1191.9081752187765 L 1624.7198743663153,911.6307525638917 A 249.09494057134918,249.09494057134918 0 0 0 1640.1757374209124,909.1827843442567 Z "/><path class="wedge" fill="rgb(213,171,130)" d=" M 1640.1757374209124,909.1827843442567 L 1693.1119068337712,1186.683902487371 A 531.6,531.6 0 0,1 1660.1271469627839,1191.9081752187765 L 1624.7198743663153,911.6307525638917 A 249.09494057134918,249.09494057134918 0 0 0 1640.1757374209124,909.1827843442567 Z "/><path class="wedge" fill="rgb(210,165,121)" d=" M 1615.62406566547,839.6300128093975 L 1660.1271469627839,1191.9081752187765 A 531.6,531.6 0 0,1 1626.879440181783,1195.051008832469 L 1604.583904386164,840.6736153109998 A 176.5219410390384,176.5219410390384 0 0 0 1615.62406566547,839.6300128093975 Z "/><path class="wedge" fill="rgb(210,165,121)" d=" M 1615.62406566547,839.6300128093975 L 1660.1271469627839,1191.9081752187765 A 531.6,531.6 0 0,1 1626.879440181783,1195.051008832469 L 1604.583904386164,840.6736153109998 A 176.5219410390384,176.5219410390384 0 0 0 1615.62406566547,839.6300128093975 Z "/><path class="wedge" fill="rgb(210,165,121)" d=" M 1615.62406566547,839.6300128093975 L 1660.1271469627839,1191.9081752187765 A 531.6,531.6 0 0,1 1626.879440181783,1195.051008832469 L 1604.583904386164,840.6736153109998 A 176.5219410390384,176.5219410390384 0 0 0 1615.62406566547,839.6300128093975 Z "/><path class="wedge" fill="rgb(210,165,121)" d=" M 1615.62406566547,839.6300128093975 L 1660.1271469627839,1191.9081752187765 A 531.6,531.6 0 0,1 1626.879440181783,1195.051008832469 L 1604.583904386164,840.6736153109998 A 176.5219410390384,176.5219410390384 0 0 0 1615.62406566547,839.6300128093975 Z "/><path class="wedge" fill="rgb(210,165,121)" d=" M 1615.62406566547,839.6300128093975 L 1660.1271469627839,1191.9081752187765 A 531.6,531.6 0 0,1 1626.879440181783,1195.051008832469 L 1604.583904386164,840.6736153109998 A 176.5219410390384,176.5219410390384 0 0 0 1615.62406566547,839.6300128093975 Z "/><path class="wedge" fill="rgb(210,165,121)" d=" M 1615.62406566547,839.6300128093975 L 1660.1271469627839,1191.9081752187765 A 531.6,531.6 0 0,1 1626.879440181783,1195.051008832469 L 1604.583904386164,840.6736153109998 A 176.5219410390384,176.5219410390384 0 0 0 1615.62406566547,839.6300128093975 Z "/><path class="wedge" fill="rgb(111,207,207)" d=" M 1599.0255657185796,752.3263521016879 L 1626.879440181783,1195.051008832469 A 531.6,531.6 0 0,1 1593.4999999999998,1196.1 L 1593.5,752.5 A 88,88 0 0 0 1599.0255657185796,752.3263521016879 Z "/><circle cx="1593.5" cy="664.5" r="88"/><circle cx="1593.5" cy="664.5" r="531.6"/><text x="1593.5" y="664.5" text-anchor="middle" style="font-color:black;font-weight:bold" transform="rotate(360,1593.5,664.5)">Root</text><path class="line" d=" M 1599.0255657185796,752.3263521016879 A 88,88 0 1 0 1593.5,752.5"/><line x1="1626.879440181783" y1="1195.051008832469" x2="1599.0255657185796" y2="752.3263521016879"/><text x="1593.5" y="542.0748007070406" text-anchor="middle" style="font-color:black;font-weight:normal" transform="rotate(358.2,1593.5,664.5)">Bacteria</text><path class="line" d=" M 1668.6593870012932,824.2218276059336 A 176.5219410390384,176.5219410390384 0 1 0 1593.5,841.0219410390384"/><line x1="1819.8442713959923" y1="1145.506061090936" x2="1668.6593870012932" y2="824.2218276059336"/><text x="1593.5" y="451.69155919480625" text-anchor="middle" style="font-color:black;font-weight:normal" transform="rotate(347.4,1593.5,664.5)">Terrabacteria group</text><line x1="2003.1048398596095" y1="1003.3545929504035" x2="1785.4309504186726" y2="823.2790908452022"/><path class="line" d=" M 1785.4309504186726,823.2790908452022 A 249.09494057134918,249.09494057134918 0 1 0 1593.5,913.5949405713492"/><text x="1593.5" y="385.1205892003119" text-anchor="middle" style="font-color:black;font-weight:normal" transform="rotate(334.80000000000007,1593.5,664.5)">Bacilli</text><path class="line" d=" M 1535.474641863784,360.3211430317618 A 309.663881028027,309.663881028027 0 0 0 1593.5,974.1638810280269"/><line x1="1493.8878647945364" y1="142.3161410769111" x2="1535.474641863784" y2="360.3211430317618"/><text x="1593.5" y="989.5569611729089" text-anchor="middle" style="font-color:black;font-weight:normal" transform="rotate(84.59998747114321,1593.5,664.5)">Lactobacillales</text><line x1="1078.601133726223" y1="532.2966811688175" x2="1243.8664792121788" y2="574.7295327288522"/><path class="line" d=" M 1243.8664792121788,574.7295327288522 A 360.9741481776334,360.9741481776334 0 0 0 1593.5,1025.4741481776334"/><text x="1593.5" y="1038.6802804694225" text-anchor="middle" style="font-color:black;font-weight:normal" transform="rotate(52.19998747114321,1593.5,664.5)">Streptococcus</text><path class="line" d=" M 1319.5551719740265,962.7865207125701 A 404.9945891502635,404.9945891502635 0 0 0 1593.5,1069.4945891502634"/><line x1="1233.9172438842747" y1="1056.0339084986367" x2="1319.5551719740265" y2="962.7865207125701"/><text x="1125.2027054248683" y="664.5" text-anchor="end" style="font-color:black;font-weight:normal" transform="rotate(-68.71789548122723,1593.5,664.5)">Streptococcus agalactiae&#160;&#160;&#160;12%</text><path class="line" d=" M 1195.679011652642,740.3885924979631 A 404.9945891502635,404.9945891502635 0 0 0 1319.5551719740265,962.7865207125701"/><line x1="1071.3161410769112" y1="764.1121352054636" x2="1195.679011652642" y2="740.3885924979631"/><text x="1593.5" y="1080.9482771592975" text-anchor="middle" style="font-color:black;font-weight:normal" transform="rotate(60.88209198991597,1593.5,664.5)">unclassified Streptococcus</text><path class="line" d=" M 1194.9385252532343,858.2822116212302 A 443.173549180377,443.173549180377 0 0 0 1293.7303117910687,990.9060794842096"/><line x1="1115.4135249221636" y1="896.9475905395649" x2="1194.9385252532343" y2="858.2822116212302"/><text x="1106.1132254098115" y="664.5" text-anchor="end" style="font-color:black;font-weight:normal" transform="rotate(-36.68250024508237,1593.5,664.5)">Streptococcus sp. FDAARGOS_522&#160;&#160;&#160;6%</text><path class="line" d=" M 1158.1763090977229,747.5426326193399 A 443.173549180377,443.173549180377 0 0 0 1194.9385252532343,858.2822116212302"/><line x1="1071.3161410769112" y1="764.112135205464" x2="1158.1763090977229" y2="747.5426326193399"/><text x="1106.1132254098115" y="664.5" text-anchor="end" style="font-color:black;font-weight:normal" transform="rotate(-18.364617292711934,1593.5,664.5)">Streptococcus sp. FDAARGOS_520&#160;&#160;&#160;4%</text><path class="line" d=" M 1201.229016552888,563.7821128774716 A 404.9945891502635,404.9945891502635 0 0 0 1195.679011652642,740.3885924979631"/><text x="1125.2027054248683" y="664.5" text-anchor="end" style="font-color:black;font-weight:normal" transform="rotate(1.7999749422864109,1593.5,664.5)">Streptococcus mutans&#160;&#160;&#160;7%</text><line x1="1429.2263446794173" y1="158.91842778082344" x2="1481.9527035414344" y2="321.1932329455871"/><path class="line" d=" M 1481.9527035414344,321.1932329455871 A 360.9741481776334,360.9741481776334 0 0 0 1243.8664792121788,574.7295327288522"/><text x="1147.2129259111832" y="664.5" text-anchor="end" style="font-color:black;font-weight:normal" transform="rotate(43.19997494228643,1593.5,664.5)">Enterococcus faecalis&#160;&#160;&#160;16%</text><path class="line" d=" M 1525.8600345110092,309.9197259840641 A 360.9741481776334,360.9741481776334 0 0 0 1481.9527035414344,321.1932329455871"/><text x="1147.2129259111832" y="664.5" text-anchor="end" style="font-color:black;font-weight:normal" transform="rotate(75.59997494228642,1593.5,664.5)">Lactobacillus gasseri&#160;&#160;&#160;2%</text><path class="line" d=" M 1832.1001211414412,861.8871865259486 A 309.663881028027,309.663881028027 0 0 0 1535.474641863784,360.3211430317618"/><text x="1593.5" y="318.9189319672485" text-anchor="middle" style="font-color:black;font-weight:normal" transform="rotate(419.3999874711432,1593.5,664.5)">Bacillales</text><line x1="2115.6839024873707" y1="764.1119068337714" x2="1948.0803035975377" y2="732.1398104169873"/><path class="line" d=" M 1948.0803035975377,732.1398104169873 A 360.9741481776334,360.9741481776334 0 0 0 1525.8600345110092,309.9197259840641"/><text x="1593.5" y="272.7115431415255" text-anchor="middle" style="font-color:black;font-weight:normal" transform="rotate(404.99998747114324,1593.5,664.5)">Bacillus cereus group</text><path class="line" d=" M 1997.727108940768,639.5788917104538 A 404.9945891502635,404.9945891502635 0 0 0 1517.6114075020369,266.6790116526419"/><line x1="2124.0925977030365" y1="631.7883008276258" x2="1997.727108940768" y2="639.5788917104538"/><text x="2061.7972945751317" y="664.5" text-anchor="start" style="font-color:black;font-weight:normal" transform="rotate(307.8360417208804,1593.5,664.5)">27%&#160;&#160;&#160;Bacillus cereus</text><path class="line" d=" M 1997.29662072487,695.6272602740132 A 404.9945891502635,404.9945891502635 0 0 0 1997.727108940768,639.5788917104538"/><line x1="2123.527534510337" y1="705.3579571306964" x2="1997.29662072487" y2="695.6272602740132"/><text x="2061.7972945751317" y="664.5" text-anchor="start" style="font-color:black;font-weight:normal" transform="rotate(360.4400604965108,1593.5,664.5)">2%&#160;&#160;&#160;Bacillus anthracis</text><path class="line" d=" M 1991.3210215364072,740.3884185150816 A 404.9945891502635,404.9945891502635 0 0 0 1997.29662072487,695.6272602740132"/><line x1="2115.6839024873707" y1="764.111906833771" x2="1991.3210215364072" y2="740.3884185150816"/><text x="2061.7972945751317" y="664.5" text-anchor="start" style="font-color:black;font-weight:normal" transform="rotate(367.6040062467735,1593.5,664.5)">2%&#160;&#160;&#160;Bacillus thuringiensis</text><path class="line" d=" M 1871.6353614705765,894.5935817275218 A 360.9741481776334,360.9741481776334 0 0 0 1948.0803035975377,732.1398104169873"/><text x="1593.5" y="1038.6802804694225" text-anchor="middle" style="font-color:black;font-weight:normal" transform="rotate(295.2000000000001,1593.5,664.5)">Staphylococcus</text><path class="line" d=" M 1948.3994638539957,859.6076313144542 A 404.9945891502635,404.9945891502635 0 0 0 1991.321021536407,740.388418515082"/><line x1="2059.3446311113175" y1="920.6002531524721" x2="1948.3994638539957" y2="859.6076313144542"/><text x="2061.7972945751317" y="664.5" text-anchor="start" style="font-color:black;font-weight:normal" transform="rotate(379.8,1593.5,664.5)">5%&#160;&#160;&#160;Staphylococcus aureus</text><path class="line" d=" M 1905.5536941928178,922.6532668427924 A 404.9945891502635,404.9945891502635 0 0 0 1948.3994638539957,859.6076313144542"/><text x="2061.7972945751317" y="664.5" text-anchor="start" style="font-color:black;font-weight:normal" transform="rotate(394.20000000000005,1593.5,664.5)">3%&#160;&#160;&#160;Staphylococcus epidermidis</text><path class="line" d=" M 1699.559467328913,889.8878408613722 A 249.09494057134918,249.09494057134918 0 0 0 1785.4309504186726,823.2790908452022"/><text x="1983.8474702856747" y="664.5" text-anchor="start" style="font-color:black;font-weight:normal" transform="rotate(412.20000000000005,1593.5,664.5)">7%&#160;&#160;&#160;Deinococcus radiodurans</text><path class="line" d=" M 1615.62406566547,839.6300128093975 A 176.5219410390384,176.5219410390384 0 0 0 1668.6593870012932,824.2218276059336"/><line x1="1660.1271469627839" y1="1191.9081752187765" x2="1615.62406566547" y2="839.6300128093975"/><text x="1593.5" y="898.0435835287112" text-anchor="middle" style="font-color:black;font-weight:normal" transform="rotate(343.80000000000007,1593.5,664.5)">Pseudomonadota</text><line x1="1816.2635835287113" y1="664.5" x2="1823.9635835287113" y2="664.5" class="tick" transform="rotate(433.80000000000007,1593.5,664.5)"/><line x1="1693.1119068337712" y1="1186.683902487371" x2="1640.1757374209124" y2="909.1827843442567"/><path class="line" d=" M 1640.1757374209124,909.1827843442567 A 249.09494057134918,249.09494057134918 0 0 0 1699.559467328913,889.8878408613722"/><text x="1983.8474702856747" y="664.5" text-anchor="start" style="font-color:black;font-weight:normal" transform="rotate(432,1593.5,664.5)">4%&#160;&#160;&#160;Escherichia coli</text><path class="line" d=" M 1624.7198743663153,911.6307525638917 A 249.09494057134918,249.09494057134918 0 0 0 1640.1757374209124,909.1827843442567"/><text x="1983.8474702856747" y="664.5" text-anchor="start" style="font-color:black;font-weight:normal" transform="rotate(441.00000000000006,1593.5,664.5)">1%&#160;&#160;&#160;Cereibacter johrii</text><path class="line" d=" M 1604.583904386164,840.6736153109998 A 176.5219410390384,176.5219410390384 0 0 0 1615.62406566547,839.6300128093975"/><text x="1947.5609705195193" y="664.5" text-anchor="start" style="font-color:black;font-weight:normal" transform="rotate(444.6000000000001,1593.5,664.5)">1%&#160;&#160;&#160;Helicobacter pylori</text><path class="line" d=" M 1593.5,752.5 A 88,88 0 0 0 1599.0255657185796,752.3263521016879"/><line x1="1593.4999999999998" y1="1196.1" x2="1593.5" y2="752.5"/><text x="1903.3" y="664.5" text-anchor="start" style="font-color:black;font-weight:normal" transform="rotate(448.2,1593.5,664.5)">1%&#160;&#160;&#160;No hits</text></svg>